<?xml version="1.0" standalone="no"?>
<!DOCTYPE svg PUBLIC "-//W3C//DTD SVG 20010904//EN"
 "http://www.w3.org/TR/2001/REC-SVG-20010904/DTD/svg10.dtd">
<svg version="1.0" xmlns="http://www.w3.org/2000/svg"
 width="622.000000pt" height="622.000000pt" viewBox="0 0 622.000000 622.000000"
 preserveAspectRatio="xMidYMid meet">
<metadata>
Created by potrace 1.14, written by Peter Selinger 2001-2017
</metadata>
<g transform="translate(0.000000,622.000000) scale(0.100000,-0.100000)"
fill="#000000" stroke="none">
<path d="M3113 5924 c3 -6 -39 -10 -109 -9 -63 0 -114 -3 -114 -7 0 -3 -18 -4
-40 -2 -23 2 -39 0 -36 -4 2 -4 -19 -8 -47 -8 -29 -1 -70 -5 -92 -9 -22 -4
-55 -8 -72 -9 -18 0 -33 -5 -33 -10 0 -4 -9 -6 -20 -3 -11 3 -23 1 -26 -5 -3
-5 -15 -8 -25 -5 -10 3 -21 1 -24 -3 -3 -5 -13 -7 -23 -6 -9 2 -19 0 -22 -4
-5 -8 -56 -20 -92 -23 -10 -1 -18 -5 -18 -10 0 -4 -4 -5 -10 -2 -5 3 -10 0
-10 -7 0 -9 -3 -9 -10 2 -7 12 -10 12 -10 1 0 -7 -6 -11 -15 -7 -8 3 -15 1
-15 -4 0 -5 -18 -13 -40 -16 -22 -4 -37 -10 -34 -15 3 -5 -2 -6 -10 -3 -9 3
-16 1 -16 -4 0 -6 -9 -9 -20 -7 -11 2 -20 0 -20 -6 0 -5 -9 -9 -21 -9 -11 0
-18 -4 -15 -9 4 -5 -3 -7 -14 -4 -11 3 -20 0 -20 -6 0 -6 -3 -10 -7 -9 -15 3
-63 -14 -63 -23 0 -5 -3 -8 -7 -7 -11 4 -131 -51 -138 -63 -4 -5 -11 -7 -16
-4 -5 4 -9 1 -9 -5 0 -6 -4 -8 -10 -5 -5 3 -10 1 -10 -4 0 -6 -3 -11 -7 -10
-18 3 -52 -14 -47 -22 3 -5 -4 -9 -15 -9 -12 0 -21 -3 -21 -8 0 -4 -9 -13 -21
-20 -17 -11 -20 -11 -14 0 3 7 0 5 -8 -4 -8 -10 -17 -15 -20 -11 -4 3 -7 1 -7
-5 0 -7 -5 -12 -10 -12 -11 0 -23 -9 -57 -40 -9 -8 -17 -13 -18 -10 -2 3 -17
-6 -35 -20 -18 -14 -35 -24 -37 -22 -3 2 -14 -7 -25 -20 -11 -13 -24 -23 -30
-23 -5 0 -16 -9 -24 -19 -8 -11 -14 -16 -14 -12 0 4 -7 1 -15 -8 -8 -8 -15
-19 -15 -25 0 -6 -7 -8 -15 -5 -8 4 -15 1 -15 -4 0 -6 -16 -16 -35 -23 -19 -7
-35 -16 -35 -19 0 -7 -11 -9 -57 -12 -16 -1 -31 -6 -35 -12 -5 -8 -8 -7 -8 1
0 9 -7 10 -23 4 -14 -5 -30 -5 -40 0 -14 8 -60 7 -194 -3 -13 -1 -23 -6 -23
-10 0 -5 -6 -8 -12 -6 -7 1 -23 -3 -35 -10 -13 -7 -23 -10 -23 -6 0 3 -7 1
-15 -6 -8 -6 -18 -9 -24 -6 -5 3 -12 -1 -15 -10 -3 -8 -10 -12 -16 -9 -5 3
-10 1 -10 -4 0 -6 -7 -11 -15 -11 -9 0 -18 -7 -21 -15 -4 -8 -10 -12 -16 -9
-5 3 -18 -3 -29 -15 -11 -12 -24 -21 -30 -21 -6 0 -7 -5 -4 -11 4 -6 -2 -13
-14 -16 -12 -3 -21 -8 -21 -12 0 -4 -18 -26 -39 -49 -22 -23 -37 -42 -34 -42
3 0 0 -6 -6 -13 -6 -8 -7 -17 -3 -21 4 -4 0 -6 -8 -4 -8 1 -14 -3 -12 -9 1 -7
-2 -13 -8 -13 -6 0 -10 -3 -9 -7 1 -5 -2 -18 -6 -30 -4 -12 -6 -24 -4 -26 2
-2 -4 -12 -14 -22 -10 -9 -16 -24 -13 -31 3 -7 1 -16 -5 -19 -5 -4 -7 -11 -4
-16 4 -5 3 -9 -2 -9 -4 0 -9 -12 -10 -27 -8 -119 -9 -174 -3 -178 4 -2 6 -18
5 -35 -1 -17 2 -33 6 -36 5 -2 6 -11 2 -19 -3 -8 0 -15 6 -15 6 0 10 -3 9 -7
-4 -12 35 -123 44 -123 4 0 15 14 25 30 9 17 21 30 26 30 4 0 5 5 2 10 -3 6
-2 10 3 10 6 0 15 14 21 30 5 17 15 30 20 30 6 0 11 6 11 13 0 7 9 23 20 35
12 12 18 22 15 22 -2 0 3 9 13 20 9 12 16 23 14 26 -2 3 5 12 15 19 10 7 19
18 19 24 1 6 2 16 3 22 0 5 5 7 11 4 5 -3 10 1 10 9 0 9 5 16 11 16 5 0 8 4 5
9 -3 5 1 14 9 21 8 7 15 16 15 21 0 5 8 18 17 29 10 11 18 26 18 33 1 7 6 11
13 9 7 -1 12 3 12 8 0 6 20 8 53 3 28 -3 62 -6 75 -7 12 0 22 -3 22 -6 0 -5
24 -8 103 -12 15 -1 27 -4 27 -8 0 -3 10 -6 23 -7 57 -1 66 -4 73 -25 5 -13 7
-26 6 -30 -1 -5 3 -8 9 -8 5 0 7 -4 4 -10 -3 -5 0 -20 7 -32 7 -13 11 -27 10
-31 -1 -4 4 -15 12 -23 8 -8 13 -23 11 -34 -2 -11 1 -20 7 -20 5 0 8 -6 5 -14
-3 -8 0 -17 8 -20 8 -3 13 -15 12 -28 -2 -24 -43 -97 -61 -110 -7 -5 -7 -8 -1
-8 7 0 7 -3 0 -8 -13 -9 -34 -42 -41 -64 -4 -10 -10 -18 -14 -18 -4 0 -15 -18
-26 -40 -10 -22 -22 -40 -25 -40 -4 0 -12 -13 -19 -30 -7 -16 -16 -30 -21 -30
-5 0 -9 -9 -9 -20 0 -10 -6 -23 -14 -27 -8 -4 -16 -15 -18 -23 -2 -8 -5 -17
-8 -20 -14 -15 -54 -64 -46 -57 5 4 18 -1 29 -10 11 -10 17 -13 14 -6 -5 8 8
10 46 9 28 -2 57 0 62 3 10 6 16 7 48 9 11 1 16 7 11 15 -5 9 -4 9 5 1 10 -9
21 -9 44 0 18 6 34 13 37 16 3 3 14 6 25 8 11 2 25 10 31 18 6 7 14 11 17 8 3
-3 16 3 28 15 13 12 28 21 35 21 7 0 16 5 20 12 5 7 3 8 -6 3 -9 -5 -11 -4 -6
4 4 6 11 9 16 6 10 -6 91 71 82 79 -3 3 1 6 10 6 8 0 21 12 29 28 7 15 22 35
32 46 10 10 16 24 13 31 -2 7 2 16 11 19 8 4 13 13 9 21 -3 8 -2 15 3 15 9 0
24 38 22 53 -1 4 4 18 11 30 6 12 12 36 13 52 0 17 3 35 6 40 3 6 4 20 3 33 0
12 4 22 10 22 6 0 4 5 -4 10 -13 8 -13 10 0 10 11 0 11 3 2 12 -16 16 -15 31
1 22 8 -5 8 -2 -2 9 -7 9 -10 17 -6 17 4 0 3 6 -1 13 -5 6 -9 24 -8 40 0 15
-2 27 -7 27 -4 0 -6 8 -4 18 1 9 -1 22 -6 28 -5 6 -10 23 -11 38 -1 14 -5 26
-8 26 -3 0 -6 9 -6 20 0 11 4 20 9 20 4 0 5 5 1 11 -7 13 25 89 38 89 5 0 7 4
4 8 -2 4 9 14 25 21 16 7 27 17 24 21 -3 5 4 7 15 5 11 -2 18 -1 16 4 -3 4 8
15 25 25 16 9 27 21 24 27 -3 5 1 6 9 3 9 -3 16 -1 16 6 0 6 5 8 10 5 6 -3 10
-1 10 4 0 6 7 11 15 11 8 0 15 5 15 10 0 6 7 10 15 10 8 0 15 5 15 11 0 5 4 8
9 5 5 -3 14 1 21 9 7 8 16 12 21 9 5 -3 12 2 15 10 3 9 10 14 14 11 5 -3 15 2
24 11 9 8 25 16 36 17 11 1 23 10 26 20 4 14 9 15 19 7 8 -7 14 -7 17 -1 1 5
10 11 18 13 8 2 21 9 28 16 8 7 18 10 23 7 5 -4 9 -1 9 6 0 7 3 9 7 6 3 -4 12
-2 20 4 7 6 13 8 13 3 0 -4 7 1 15 12 10 13 14 15 15 5 0 -11 4 -11 18 2 10
10 22 14 26 10 4 -4 10 -3 14 3 7 12 118 49 140 47 6 0 12 3 12 7 0 5 11 7 25
4 16 -3 27 1 31 9 2 8 15 13 27 12 12 -1 29 1 37 5 8 4 38 11 65 14 28 4 51
11 53 16 2 6 10 6 21 1 9 -5 23 -6 31 -1 7 4 20 6 28 2 9 -3 13 -1 10 4 -4 5
22 9 58 9 35 0 64 3 64 7 0 3 15 5 33 4 17 -2 35 2 39 8 5 8 8 7 8 -1 0 -9 7
-10 23 -4 14 5 30 5 40 0 10 -6 17 -6 17 -1 0 11 62 8 80 -3 8 -5 11 -4 6 3
-4 7 1 10 14 9 11 -1 20 -4 20 -8 0 -4 14 -4 30 1 17 5 30 5 30 0 0 -4 19 -8
43 -9 80 -2 122 -6 136 -15 10 -7 12 -6 6 4 -6 10 -4 11 6 4 16 -10 32 -13 77
-16 17 0 32 -4 32 -8 0 -3 10 -6 23 -7 44 -2 77 -7 77 -13 0 -3 12 -7 28 -8
59 -6 67 -7 74 -17 4 -5 16 -10 26 -10 10 0 27 -7 37 -15 15 -12 17 -12 10 -1
-6 11 -5 12 6 5 8 -5 16 -9 19 -10 34 -6 60 -18 60 -28 0 -6 5 -4 10 4 7 12
10 12 10 1 0 -7 6 -11 15 -7 9 3 15 -1 15 -11 0 -13 3 -13 15 -3 10 9 15 9 15
1 0 -6 9 -11 21 -11 13 0 18 -4 13 -12 -5 -8 -2 -9 9 -5 10 3 17 2 17 -3 0 -5
9 -7 20 -5 13 3 18 0 14 -7 -5 -8 -1 -9 10 -5 10 4 15 3 11 -3 -3 -5 6 -12 20
-16 14 -3 25 -10 25 -15 0 -5 7 -6 15 -3 8 3 17 0 20 -8 3 -8 15 -15 27 -15
12 -1 24 -6 27 -11 3 -5 21 -15 39 -23 17 -8 32 -17 32 -20 0 -3 18 -14 40
-25 22 -10 40 -23 40 -27 0 -5 5 -5 10 -2 6 3 10 1 10 -4 0 -6 6 -11 14 -11 8
0 16 -6 19 -14 3 -8 22 -22 41 -31 20 -10 36 -21 36 -26 0 -5 6 -9 14 -9 8 0
18 -9 21 -20 4 -11 11 -17 17 -14 5 4 22 -7 38 -24 15 -17 31 -28 34 -25 3 4
6 1 6 -5 0 -7 4 -12 10 -12 14 0 70 -57 70 -71 0 -7 3 -10 6 -7 6 7 122 -107
174 -172 19 -24 48 -56 63 -72 15 -15 25 -28 22 -28 -3 0 4 -10 15 -22 12 -13
35 -45 53 -73 17 -27 37 -56 44 -63 6 -6 15 -21 18 -32 3 -11 11 -20 16 -20 5
0 9 -7 9 -15 0 -8 5 -15 11 -15 5 0 7 -4 4 -10 -3 -5 3 -20 14 -32 12 -12 21
-28 21 -35 0 -7 5 -13 11 -13 5 0 7 -4 4 -10 -3 -5 -1 -10 4 -10 6 0 11 -9 11
-20 0 -11 5 -20 10 -20 6 0 10 -4 10 -9 0 -5 10 -31 22 -58 12 -26 22 -51 22
-55 1 -4 9 -16 18 -28 10 -11 13 -20 8 -20 -10 0 7 -39 22 -50 12 -9 446 -5
455 4 4 5 3 11 -4 13 -7 2 -9 11 -6 19 3 8 0 14 -7 14 -6 0 -9 3 -7 8 3 4 -3
24 -13 45 -10 20 -14 35 -9 31 5 -3 4 6 -3 20 -6 14 -15 26 -20 26 -5 0 -7 4
-3 9 3 5 1 12 -4 16 -6 3 -8 12 -4 20 3 8 0 15 -6 15 -6 0 -10 3 -9 8 4 11
-134 292 -144 292 -4 0 -8 6 -8 14 0 7 -7 19 -15 26 -8 7 -12 16 -9 21 3 5 0
9 -5 9 -6 0 -11 9 -11 21 0 15 -5 19 -16 15 -8 -3 -12 -2 -9 4 5 8 -19 56 -36
70 -3 3 -14 19 -24 37 -10 18 -23 29 -28 26 -6 -3 -7 -1 -4 4 4 6 -7 26 -23
44 -16 19 -30 37 -30 40 0 12 -43 54 -52 51 -6 -2 -8 4 -4 13 4 10 -1 18 -15
23 -11 5 -20 11 -20 15 2 21 -1 26 -19 32 -11 3 -20 13 -20 21 0 8 -4 12 -10
9 -5 -3 -10 -1 -10 5 0 14 -51 66 -62 63 -4 -2 -5 4 -2 11 3 8 -3 17 -15 21
-11 3 -23 15 -26 26 -4 10 -11 19 -16 19 -6 0 -7 -5 -3 -12 4 -7 3 -8 -5 -4
-6 4 -9 11 -6 16 3 4 -2 11 -11 14 -8 3 -12 10 -9 16 3 5 0 10 -8 10 -8 0 -25
13 -38 29 -13 16 -27 27 -31 25 -4 -3 -8 2 -8 11 0 9 -4 14 -9 10 -5 -3 -18 6
-29 20 -11 13 -22 22 -25 18 -4 -3 -9 2 -13 11 -3 9 -13 16 -22 16 -8 0 -13 3
-9 6 9 9 -75 64 -88 57 -5 -4 -7 -3 -3 2 7 7 -14 35 -26 35 -12 0 -96 62 -96
71 0 6 -5 7 -10 4 -6 -3 -17 0 -25 7 -39 36 -44 38 -70 38 -8 0 -15 7 -15 15
0 8 -3 14 -7 13 -13 -3 -93 36 -93 45 0 4 -4 6 -9 3 -5 -3 -14 1 -21 9 -7 8
-19 15 -26 15 -18 0 -55 21 -71 40 -11 13 -12 13 -13 0 0 -13 -1 -13 -10 0 -5
8 -12 11 -16 8 -3 -4 -13 0 -21 8 -8 8 -19 12 -24 9 -5 -4 -9 -2 -9 4 0 5 -13
12 -30 16 -16 4 -30 11 -30 16 0 6 -5 7 -11 4 -5 -4 -19 1 -30 11 -15 13 -19
14 -19 3 0 -11 -2 -11 -10 1 -5 8 -10 12 -10 7 0 -4 -10 -1 -22 7 -13 7 -31
12 -40 11 -10 -2 -18 0 -18 3 0 9 -73 32 -100 32 -11 0 -20 4 -20 9 0 5 -11 8
-25 7 -13 -2 -22 0 -20 4 2 4 -12 7 -32 8 -20 1 -39 5 -42 9 -3 5 -15 9 -26
10 -11 1 -32 4 -46 7 -14 3 -40 7 -57 9 -18 2 -35 7 -38 10 -4 3 -15 2 -25 -4
-14 -7 -19 -7 -17 2 2 7 -12 12 -37 13 -22 1 -46 5 -52 9 -8 5 -13 3 -13 -4 0
-8 -5 -7 -17 2 -15 12 -16 12 -8 -1 7 -12 6 -13 -6 -4 -16 13 -10 12 -139 17
-53 2 -102 7 -109 12 -9 5 -12 4 -8 -1z"/>
<path d="M4030 4669 c0 -5 -6 -7 -12 -3 -7 4 -10 4 -6 -1 4 -4 2 -13 -5 -20
-7 -7 -19 -23 -27 -35 -8 -13 -23 -32 -32 -42 -10 -10 -18 -21 -18 -24 0 -3
-8 -16 -17 -29 -10 -12 -25 -33 -33 -45 -8 -13 -24 -32 -35 -44 -12 -11 -21
-23 -21 -26 -1 -13 -30 -59 -39 -62 -5 -2 -9 -6 -8 -9 1 -3 -11 -20 -27 -37
-16 -18 -27 -32 -24 -32 3 0 -11 -20 -30 -44 -20 -23 -36 -47 -36 -51 0 -4
-10 -16 -22 -26 -11 -11 -18 -19 -13 -19 4 0 -7 -16 -24 -35 -17 -20 -31 -39
-31 -44 0 -4 -16 -25 -35 -47 -19 -21 -35 -44 -35 -50 0 -7 -7 -15 -16 -18 -9
-4 -14 -9 -11 -12 3 -4 -1 -13 -9 -21 -8 -8 -28 -36 -46 -61 -17 -26 -40 -55
-50 -65 -10 -10 -16 -22 -13 -27 3 -5 -4 -11 -15 -15 -11 -4 -18 -10 -16 -14
3 -4 -7 -21 -22 -38 -15 -17 -28 -37 -30 -44 -2 -8 -14 -23 -28 -35 -13 -12
-21 -23 -18 -26 3 -3 -5 -17 -18 -31 -36 -39 -49 -57 -43 -57 4 0 -7 -14 -24
-31 -29 -29 -43 -57 -21 -44 6 3 10 3 10 -2 0 -4 63 -8 140 -8 77 0 140 2 140
5 0 9 225 5 239 -4 10 -6 12 -5 7 3 -9 15 53 12 73 -3 12 -9 13 -8 6 3 -6 11
-2 13 24 8 23 -5 30 -3 25 5 -5 7 -3 8 5 3 19 -11 151 -12 151 0 0 6 5 3 10
-5 9 -13 11 -13 20 0 5 8 10 11 10 5 0 -6 24 -9 60 -7 55 3 59 2 53 -15 -4
-10 -31 -41 -60 -70 -29 -29 -51 -53 -48 -53 3 0 -4 -9 -15 -20 -11 -11 -25
-20 -31 -20 -6 0 -8 -7 -5 -16 5 -12 2 -15 -9 -10 -9 3 -13 2 -10 -3 3 -5 -5
-17 -17 -25 -12 -9 -20 -16 -16 -16 3 0 -30 -36 -74 -80 -44 -44 -77 -80 -73
-80 3 0 -10 -15 -29 -34 -20 -18 -33 -36 -29 -40 3 -3 1 -6 -5 -6 -13 0 -52
-36 -52 -48 0 -4 -9 -13 -20 -20 -11 -7 -20 -18 -20 -26 0 -21 -27 -40 -33
-24 -4 9 -6 7 -6 -4 -1 -9 -10 -23 -21 -31 -11 -8 -17 -17 -13 -20 3 -4 -2 -7
-12 -7 -10 0 -16 -3 -12 -6 3 -4 -31 -44 -77 -90 -61 -62 -80 -86 -72 -95 8
-9 8 -10 -1 -5 -7 4 -21 2 -30 -3 -13 -7 -14 -10 -4 -11 16 0 -26 -40 -42 -40
-6 0 -8 -3 -4 -6 8 -8 -16 -33 -25 -27 -5 2 -8 -2 -8 -10 0 -8 -7 -18 -16 -21
-8 -3 -12 -10 -9 -16 3 -5 0 -10 -8 -10 -7 0 -20 -11 -27 -25 -7 -13 -17 -22
-22 -19 -4 3 -8 0 -8 -7 0 -6 -18 -29 -40 -50 -22 -22 -40 -41 -40 -44 0 -10
-39 -43 -44 -38 -3 4 -6 -1 -6 -11 0 -9 -4 -14 -10 -11 -5 3 -10 2 -10 -3 0
-6 -16 -26 -36 -46 -20 -20 -33 -36 -29 -36 4 0 -9 -14 -29 -32 -19 -17 -33
-35 -30 -40 3 -4 0 -8 -6 -8 -6 0 -32 -23 -58 -52 -26 -28 -65 -69 -87 -90
-22 -21 -37 -38 -33 -38 3 0 -23 -30 -58 -66 -35 -36 -64 -70 -64 -75 0 -6 -4
-8 -9 -4 -5 3 -20 -9 -32 -27 -13 -18 -34 -43 -46 -55 -13 -13 -22 -23 -19
-23 2 0 -37 -41 -87 -92 -50 -50 -92 -98 -93 -106 -2 -8 -8 -20 -15 -26 -9 -8
-10 -7 -4 4 4 8 -11 -5 -33 -29 -23 -24 -42 -48 -42 -53 0 -4 -8 -8 -17 -9
-11 0 -13 -3 -6 -6 12 -4 39 17 116 90 31 29 43 35 31 15 -4 -7 11 6 34 30 23
23 45 43 49 43 4 0 17 8 28 17 11 10 23 17 27 17 4 0 14 9 22 20 9 11 16 17
16 13 0 -3 15 7 32 24 56 51 64 58 72 58 4 0 22 15 40 33 18 17 39 33 47 35 8
2 16 8 17 13 2 5 10 9 18 9 9 0 12 5 9 10 -3 6 -1 10 5 10 12 0 28 12 73 55
17 17 34 29 37 28 5 -2 52 34 95 73 13 12 25 20 28 18 2 -2 21 13 42 33 l39
37 1158 0 c816 0 1158 3 1158 10 0 6 5 4 10 -4 6 -9 10 -10 10 -3 0 7 9 10 20
8 12 -2 23 2 26 10 3 8 13 11 21 8 9 -4 19 1 25 11 5 9 13 14 18 11 5 -3 24
10 44 29 20 18 36 31 36 27 0 -3 5 2 11 12 6 9 15 14 21 11 6 -4 8 -3 4 4 -3
6 1 17 9 25 8 9 15 19 15 24 0 5 9 17 21 26 11 10 18 25 15 33 -3 9 -1 12 4 9
5 -3 15 5 21 19 7 14 16 23 22 19 6 -3 7 -1 3 5 -3 6 1 17 9 25 8 9 15 18 15
21 0 3 11 17 25 32 13 14 22 30 19 35 -3 5 2 12 10 15 15 6 32 41 28 57 -1 4
2 7 7 7 9 0 35 58 32 73 0 4 3 7 9 7 6 0 9 3 8 8 0 4 1 14 5 22 15 40 24 88
30 171 2 25 7 52 12 59 5 8 4 11 -2 7 -11 -7 -11 122 0 140 3 5 4 13 0 17 -10
9 -10 97 -1 102 5 3 5 11 1 17 -11 17 -11 89 0 111 6 13 6 16 -2 12 -12 -8 -8
54 5 75 4 7 3 9 -3 6 -11 -7 -11 122 0 140 3 5 4 13 0 16 -3 4 -7 39 -9 79 -2
40 -8 74 -14 76 -5 2 -10 11 -10 21 0 9 -9 27 -20 39 -11 12 -20 25 -20 31 0
5 -7 12 -16 15 -8 3 -12 10 -9 16 3 6 -1 7 -9 4 -9 -3 -16 -1 -16 5 0 6 -17
19 -37 29 -21 9 -41 22 -45 27 -5 6 -8 5 -8 -3 0 -8 -5 -10 -12 -5 -7 4 -22 8
-33 8 -11 0 -26 4 -32 8 -8 5 -13 3 -13 -5 0 -8 -3 -9 -8 -3 -8 11 -52 15 -52
5 0 -3 -9 -6 -20 -6 -11 0 -20 4 -20 9 0 5 -6 4 -14 -2 -10 -8 -16 -9 -21 -1
-4 7 -12 7 -25 0 -13 -7 -21 -7 -25 0 -5 8 -11 7 -21 -1 -11 -9 -14 -9 -14 0
0 8 -5 9 -19 1 -14 -7 -22 -7 -26 0 -5 8 -11 7 -21 -1 -11 -9 -14 -9 -14 1 0
10 -3 10 -14 1 -10 -9 -16 -9 -21 -1 -5 8 -11 8 -21 -1 -8 -6 -14 -8 -14 -3 0
5 -11 9 -25 9 -14 0 -25 -2 -25 -5 0 -3 -11 -5 -25 -5 -14 0 -25 5 -25 10 0 6
-5 3 -10 -5 -5 -8 -10 -10 -10 -5 0 6 -11 10 -25 10 -14 0 -25 -2 -25 -5 0 -3
-9 -6 -20 -6 -11 0 -20 4 -20 9 0 5 -6 4 -14 -2 -10 -8 -16 -9 -21 -1 -4 7
-12 7 -25 0 -13 -7 -21 -7 -25 0 -5 8 -11 7 -21 -1 -10 -8 -14 -8 -14 0 0 7
-8 8 -25 1 -17 -7 -25 -6 -25 1 0 8 -5 7 -15 -1 -11 -9 -15 -9 -15 -1 0 9 -5
9 -20 1 -15 -8 -20 -8 -20 1 0 8 -4 8 -15 -1 -8 -7 -15 -9 -15 -4 0 5 -11 9
-25 9 -14 0 -25 -2 -25 -5 0 -3 -11 -5 -25 -5 -14 0 -25 5 -25 10 0 6 -5 3
-10 -5 -5 -8 -10 -10 -10 -5 0 6 -11 10 -25 10 -14 0 -25 -2 -25 -5 0 -3 -9
-6 -20 -6 -11 0 -20 4 -20 9 0 5 -6 4 -14 -2 -10 -8 -16 -9 -21 -1 -4 7 -12 7
-25 0 -13 -7 -21 -7 -25 0 -5 8 -11 7 -21 -1 -10 -8 -14 -8 -14 0 0 7 -8 8
-25 1 -17 -7 -25 -6 -25 1 0 8 -5 7 -15 -1 -11 -9 -15 -9 -15 -1 0 9 -5 9 -20
1 -15 -8 -20 -8 -20 1 0 8 -4 8 -15 -1 -8 -7 -15 -9 -15 -4 0 5 -11 9 -25 9
-14 0 -25 -2 -25 -5 0 -3 -11 -5 -25 -5 -14 0 -25 5 -25 10 0 6 -5 3 -10 -5
-5 -8 -10 -10 -10 -5 0 6 -11 10 -25 10 -14 0 -25 -2 -25 -5 0 -3 -9 -6 -20
-6 -11 0 -20 4 -20 9 0 5 -6 4 -14 -2 -9 -8 -16 -8 -20 -2 -4 7 -15 7 -31 1
-16 -6 -25 -5 -28 3 -4 12 -2 80 8 177 9 100 15 174 18 240 2 36 7 71 11 78 4
7 2 12 -6 12 -8 0 -9 3 -3 8 10 7 11 14 18 123 2 36 7 71 11 77 4 7 2 12 -4
12 -6 0 -8 4 -5 10 3 5 8 31 11 57 2 27 7 60 9 76 3 15 2 27 0 27 -3 0 -5 -5
-5 -11z m11 -2108 c5 9 9 10 9 2 0 -11 71 -10 91 2 5 4 9 0 9 -7 0 -9 3 -9 10
2 5 8 10 10 10 3 0 -11 71 -10 91 2 5 4 9 1 9 -5 0 -8 7 -9 18 -5 9 4 22 7 27
6 56 -5 195 -5 212 1 12 4 23 3 25 -3 2 -7 12 -7 31 0 15 6 27 7 27 2 0 -9 74
-6 90 4 6 3 10 3 10 -2 0 -10 253 -9 269 1 6 4 11 1 11 -6 0 -9 3 -9 10 2 5 8
10 10 10 3 0 -11 71 -10 91 2 5 4 9 0 9 -7 0 -9 3 -9 10 2 5 8 10 10 10 3 0
-11 71 -10 91 2 5 4 9 1 9 -5 0 -8 7 -9 18 -5 9 4 22 7 27 6 56 -5 195 -5 212
1 12 4 23 3 25 -3 2 -7 12 -7 31 0 15 6 27 7 27 2 0 -4 18 -7 40 -5 34 2 39 0
37 -15 -2 -10 -11 -26 -20 -35 -9 -10 -17 -23 -17 -30 0 -8 -7 -19 -15 -26 -8
-7 -12 -16 -9 -21 3 -5 -2 -12 -10 -15 -9 -3 -14 -9 -12 -13 3 -4 -6 -20 -19
-37 l-23 -29 -46 47 c-25 26 -46 45 -46 41 0 -4 -6 1 -13 11 -14 19 -63 27
-89 14 -9 -4 -19 -4 -22 0 -3 5 -41 7 -85 6 -58 -2 -81 0 -81 9 0 7 -4 6 -10
-3 -5 -8 -12 -11 -16 -8 -4 4 -15 3 -25 -2 -11 -7 -20 -7 -24 0 -3 5 -22 7
-42 4 -27 -4 -33 -3 -27 8 6 10 5 11 -7 1 -16 -13 -106 -13 -126 0 -6 4 -14 3
-17 -1 -8 -13 -186 -12 -186 2 0 6 -4 5 -9 -3 -5 -7 -15 -11 -22 -9 -8 3 -22
1 -33 -4 -12 -7 -16 -7 -12 0 3 5 -1 13 -10 16 -8 3 -13 2 -10 -3 7 -11 -166
-11 -181 1 -6 5 -14 5 -17 0 -8 -13 -186 -12 -186 2 0 6 -4 4 -10 -4 -5 -8
-12 -11 -16 -8 -4 4 -15 3 -25 -2 -11 -7 -20 -7 -24 0 -3 5 -22 7 -42 4 -27
-4 -33 -3 -27 8 6 10 5 11 -7 1 -18 -14 -140 -13 -131 2 3 5 -1 5 -9 -2 -16
-13 -87 -12 -108 1 -10 6 -12 6 -7 -2 9 -15 -43 -13 -63 2 -11 8 -13 8 -7 -1
4 -7 2 -13 -3 -13 -19 0 -12 29 10 41 12 6 35 23 51 37 28 26 36 27 139 28 60
1 113 4 116 8 4 4 9 2 12 -5 2 -8 6 -7 12 2z m-591 -316 c0 6 32 10 75 10 43
0 75 -4 75 -10 0 -7 3 -7 8 0 4 6 39 10 77 10 39 0 73 -4 77 -10 5 -7 8 -7 8
0 0 11 81 12 98 1 7 -4 12 -4 12 1 0 10 52 9 68 -1 7 -4 12 -4 12 1 0 10 372
9 388 -1 7 -4 12 -4 12 1 0 10 52 9 68 -1 7 -4 12 -4 12 1 0 10 372 9 388 -1
7 -4 12 -4 12 1 0 10 52 9 68 -1 7 -4 12 -4 12 1 0 10 372 9 388 -1 7 -4 12
-4 12 1 0 7 53 9 70 3 3 -1 21 -1 40 0 30 1 36 -2 37 -20 1 -11 -2 -18 -7 -15
-4 3 -11 -6 -14 -20 -4 -14 -11 -25 -16 -25 -6 0 -10 -7 -10 -15 0 -33 -34
-51 -93 -49 -39 1 -54 -2 -50 -10 5 -8 3 -8 -8 0 -8 6 -42 10 -77 9 -35 -1
-65 2 -68 7 -3 5 -11 5 -17 1 -21 -13 -98 -13 -91 0 3 7 -2 3 -10 -7 -9 -11
-16 -15 -16 -8 0 7 -17 10 -50 8 -28 -2 -53 1 -56 6 -3 5 -11 5 -17 0 -7 -5
-49 -8 -94 -7 -53 1 -80 -2 -76 -8 4 -6 1 -7 -8 -1 -21 13 -160 13 -152 0 5
-8 3 -8 -8 0 -8 6 -38 10 -67 9 -29 0 -55 3 -58 7 -3 5 -11 5 -17 1 -21 -13
-98 -13 -91 0 3 7 -2 3 -10 -7 -9 -11 -16 -15 -16 -8 0 7 -17 10 -50 8 -28 -2
-53 1 -56 5 -3 5 -11 6 -17 2 -21 -13 -98 -13 -91 0 3 7 -2 3 -10 -7 -9 -11
-16 -15 -16 -8 0 7 -17 10 -50 8 -28 -2 -53 1 -56 5 -3 5 -11 6 -17 2 -20 -12
-137 -11 -130 1 3 6 0 6 -7 -1 -9 -8 -19 -9 -31 -3 -12 7 -20 6 -25 -2 -5 -7
-3 -8 6 -3 9 6 11 4 5 -4 -5 -9 -11 -9 -17 -3 -6 6 -17 8 -26 5 -11 -5 -13 -3
-7 7 6 9 4 11 -6 5 -22 -15 -100 -16 -93 -2 3 7 -2 3 -10 -7 -9 -11 -16 -14
-16 -8 0 8 -16 11 -50 8 -37 -3 -48 -1 -44 7 5 9 3 9 -6 0 -9 -8 -19 -9 -31
-3 -12 7 -20 6 -25 -2 -5 -7 -3 -8 6 -3 9 6 11 4 5 -4 -5 -9 -11 -9 -17 -3 -6
6 -17 8 -26 5 -11 -5 -13 -3 -7 7 6 9 4 11 -6 4 -19 -11 -84 -14 -100 -3 -11
6 -9 12 10 26 14 10 38 32 55 48 16 17 26 23 22 15 -5 -8 3 -2 18 14 14 16 26
26 26 23 0 -3 12 1 27 8 21 11 29 12 35 2 4 -7 8 -7 8 -2z"/>
<path d="M2960 4591 c-24 -33 -48 -57 -53 -54 -6 3 -7 1 -3 -6 5 -7 -9 -28
-36 -53 -24 -23 -36 -38 -28 -34 9 5 8 2 -2 -7 -10 -8 -15 -17 -11 -20 3 -4
-1 -7 -10 -7 -9 0 -23 -12 -31 -27 -8 -16 -24 -36 -36 -46 -11 -10 -18 -22
-15 -27 3 -6 2 -10 -4 -10 -6 0 -24 -13 -41 -30 -17 -16 -28 -30 -25 -30 2 0
-3 -9 -12 -19 -9 -11 -21 -17 -26 -14 -6 3 -7 1 -3 -6 5 -7 -5 -24 -24 -41
-19 -17 -29 -34 -24 -41 4 -7 3 -9 -3 -6 -9 6 -22 -8 -108 -112 -16 -20 -42
-48 -56 -63 -15 -15 -24 -30 -21 -33 3 -3 -2 -5 -12 -5 -9 0 -14 -5 -11 -10 3
-6 -10 -25 -29 -44 -20 -18 -36 -38 -36 -44 0 -9 -28 -21 -62 -26 -10 -2 -18
2 -18 8 0 7 -3 7 -8 1 -9 -13 -82 -13 -82 0 0 5 -5 3 -10 -5 -7 -11 -10 -11
-10 -2 0 8 -5 10 -12 5 -21 -12 -38 -12 -38 0 0 8 -3 8 -8 2 -9 -13 -75 -14
-84 0 -6 7 -10 7 -15 0 -10 -14 -46 -14 -55 0 -5 6 -8 6 -8 0 0 -5 -18 -10
-40 -10 -22 0 -40 5 -40 10 0 6 -5 3 -10 -5 -7 -11 -10 -11 -10 -2 0 8 -5 10
-12 5 -21 -12 -38 -12 -38 0 0 8 -3 8 -8 2 -9 -13 -75 -14 -84 0 -6 7 -10 7
-15 0 -10 -14 -46 -14 -55 0 -5 6 -8 6 -8 0 0 -5 -18 -10 -40 -10 -22 0 -40 5
-40 10 0 6 -5 3 -10 -5 -7 -11 -10 -11 -10 -2 0 8 -5 10 -12 5 -21 -12 -38
-12 -38 0 0 8 -3 8 -8 2 -9 -13 -75 -14 -84 0 -6 7 -10 7 -15 0 -10 -14 -46
-14 -55 0 -5 6 -8 6 -8 0 0 -5 -18 -10 -40 -10 -22 0 -40 5 -40 10 0 6 -5 3
-10 -5 -7 -11 -10 -11 -10 -2 0 8 -5 10 -12 5 -21 -12 -38 -12 -38 0 0 8 -3 8
-8 2 -9 -13 -75 -14 -84 0 -6 7 -10 7 -15 0 -5 -6 -17 -11 -28 -11 -11 0 -23
5 -27 11 -5 6 -8 6 -8 0 0 -5 -18 -10 -40 -10 -22 0 -40 5 -40 10 0 6 -5 3
-10 -5 -7 -11 -10 -11 -10 -2 0 8 -5 10 -12 5 -21 -12 -38 -12 -38 0 0 8 -3 8
-8 2 -9 -13 -75 -14 -84 0 -6 7 -10 7 -15 0 -5 -6 -17 -11 -28 -11 -11 0 -23
5 -27 11 -5 6 -8 6 -8 0 0 -5 -21 -11 -48 -12 -57 -2 -65 -4 -125 -32 -26 -12
-45 -26 -42 -31 4 -6 1 -10 -5 -10 -14 0 -34 -20 -43 -42 -3 -10 -11 -18 -17
-18 -6 0 -9 -4 -5 -9 3 -5 1 -12 -5 -16 -5 -3 -10 -17 -10 -31 0 -13 -4 -24
-8 -24 -12 0 -9 -43 3 -52 7 -5 6 -8 0 -8 -6 0 -11 -20 -11 -44 0 -25 4 -42 9
-39 5 3 5 -3 0 -13 -11 -22 -10 -394 0 -411 4 -6 4 -14 -1 -17 -10 -6 -9 -87
1 -103 4 -7 3 -14 -3 -18 -11 -7 -9 -33 3 -52 5 -8 4 -13 -3 -13 -11 0 -7 -40
6 -61 4 -8 3 -9 -4 -5 -12 7 -17 -6 -6 -17 4 -3 8 -24 9 -45 4 -46 43 -170 62
-193 7 -9 10 -19 6 -22 -3 -4 -1 -7 5 -7 7 0 12 -7 12 -15 0 -8 5 -15 12 -15
6 0 9 -3 5 -6 -5 -6 0 -15 31 -49 6 -7 12 -17 12 -20 0 -6 18 -31 61 -82 5 -7
7 -13 4 -13 -5 0 17 -28 42 -55 7 -7 10 -15 7 -17 -2 -3 10 -20 28 -39 18 -19
32 -38 33 -42 0 -4 20 -21 44 -37 24 -17 40 -30 35 -30 -5 -1 22 -12 60 -25
38 -14 72 -22 77 -19 5 3 9 1 9 -3 0 -5 376 -9 835 -9 459 0 835 3 835 7 0 4
6 14 13 21 16 17 57 93 57 106 0 9 -39 10 -75 2 -5 -1 -12 -1 -15 0 -15 7 -90
5 -90 -2 0 -5 -8 -5 -17 0 -22 10 -93 10 -110 -1 -7 -5 -13 -4 -13 0 0 5 -22
9 -50 9 -27 0 -50 -4 -50 -8 0 -5 -8 -5 -17 0 -22 10 -93 10 -110 -1 -7 -5
-13 -4 -13 0 0 5 -22 9 -50 9 -27 0 -50 -4 -50 -9 0 -4 -5 -5 -12 -1 -17 10
-468 11 -468 1 0 -4 -8 -4 -17 1 -22 10 -93 10 -110 -1 -7 -5 -13 -4 -13 0 0
5 -22 9 -50 9 -27 0 -50 -4 -50 -8 0 -5 -8 -5 -18 0 -21 10 -92 10 -109 -1 -7
-5 -13 -4 -13 0 0 5 -22 9 -50 9 -27 0 -50 -4 -50 -9 0 -4 -5 -5 -12 -1 -6 4
-46 8 -87 9 -84 1 -101 7 -101 36 0 10 -5 19 -11 19 -5 0 -8 4 -5 9 3 4 -3 16
-13 25 -10 9 -19 27 -19 39 l0 22 987 0 c783 0 985 3 983 13 -1 6 4 12 11 12
7 0 14 10 14 22 1 13 8 27 15 33 7 5 20 24 28 40 8 17 20 35 26 40 8 6 9 18 4
30 -5 11 -9 14 -9 7 -1 -10 -6 -10 -21 -2 -15 8 -20 8 -20 -2 0 -8 -3 -9 -8
-3 -8 11 -62 15 -62 4 0 -4 -13 -4 -30 1 -20 6 -30 5 -30 -2 0 -6 -6 -6 -15 2
-12 10 -15 10 -15 -1 0 -9 -3 -10 -8 -4 -8 11 -122 14 -122 4 0 -4 -16 -3 -35
1 -24 5 -35 4 -35 -4 0 -6 -5 -4 -10 4 -6 9 -10 11 -10 3 0 -7 -7 -10 -15 -7
-22 9 -135 10 -135 2 0 -4 -13 -3 -30 2 -17 5 -30 5 -30 0 0 -5 -13 -5 -30 0
-16 5 -30 5 -30 1 0 -4 -27 -4 -60 -1 -33 3 -60 3 -60 -1 0 -4 -16 -3 -35 1
-24 5 -35 4 -35 -4 0 -6 -5 -4 -10 4 -6 9 -10 11 -10 3 0 -7 -7 -10 -15 -7
-22 9 -135 10 -135 2 0 -4 -13 -3 -30 2 -17 5 -30 5 -30 0 0 -5 -13 -5 -30 0
-16 5 -30 5 -30 1 0 -4 -27 -4 -60 -1 -33 3 -60 3 -60 -1 0 -4 -16 -3 -35 1
-24 5 -35 4 -35 -4 0 -6 -5 -4 -10 4 -6 9 -10 11 -10 3 0 -7 -6 -10 -14 -7
-21 8 -216 10 -216 3 0 -4 -16 -3 -35 1 -24 5 -35 4 -35 -4 0 -6 -5 -4 -10 4
-6 9 -10 11 -10 3 0 -7 -7 -10 -15 -7 -22 9 -135 10 -135 2 0 -4 -13 -3 -30 2
-17 5 -30 5 -30 0 0 -5 -13 -5 -30 0 -19 5 -30 5 -30 -1 0 -6 -5 -7 -11 -3 -6
3 -21 -5 -34 -20 -12 -14 -25 -23 -29 -19 -3 3 -6 0 -6 -8 0 -19 -59 -59 -76
-52 -8 3 -17 16 -20 29 -3 13 -10 24 -16 24 -5 0 -6 5 -3 10 3 6 0 13 -9 16
-8 3 -18 19 -21 35 -4 16 -10 29 -14 29 -13 0 -29 44 -22 60 5 13 24 19 34 10
8 -7 37 -7 37 1 0 5 10 5 23 0 13 -5 30 -5 37 -1 8 5 19 6 25 2 17 -11 35 -11
35 0 0 7 4 7 13 0 7 -6 18 -7 27 -2 7 4 24 4 36 0 14 -6 26 -5 29 1 4 5 11 6
18 2 16 -10 58 -10 64 0 2 4 11 3 18 -3 9 -8 15 -8 20 0 3 6 12 7 18 3 18 -11
37 -12 37 -2 0 5 10 5 23 0 13 -5 30 -5 37 -1 8 5 19 5 26 -1 8 -7 14 -6 19 1
3 6 12 7 18 3 18 -11 37 -12 37 -2 0 5 10 5 23 0 13 -5 30 -5 37 -1 8 5 19 5
26 -1 8 -7 14 -6 19 1 3 6 12 7 18 3 18 -11 37 -12 37 -2 0 5 10 5 23 0 13 -5
30 -5 37 -1 8 5 19 5 26 -1 8 -7 14 -6 19 1 3 6 12 7 18 3 18 -11 37 -12 37
-2 0 5 10 5 23 0 13 -5 30 -5 37 -1 8 5 19 6 24 3 15 -10 57 -10 62 -1 3 5 10
5 17 1 16 -10 58 -10 63 -1 3 5 11 5 17 1 18 -11 37 -12 37 -2 0 5 10 5 23 0
13 -5 30 -5 37 -1 8 5 19 6 25 2 16 -10 35 -11 35 -1 0 5 10 5 23 0 13 -5 30
-5 37 -1 8 5 19 6 25 2 17 -11 35 -11 35 -1 0 6 4 7 10 4 15 -9 91 -12 96 -3
3 5 10 5 17 1 16 -10 58 -10 64 0 2 4 11 3 18 -3 9 -8 15 -8 20 0 3 6 12 7 18
3 18 -11 37 -12 37 -2 0 5 10 5 23 0 13 -5 30 -5 37 -1 8 5 19 5 26 -1 8 -7
14 -6 19 1 3 6 12 7 18 3 18 -11 37 -12 37 -2 0 5 10 5 23 0 13 -5 30 -5 37
-1 8 5 19 6 25 2 16 -10 35 -11 35 -1 0 5 10 5 23 0 13 -5 30 -5 37 -1 8 5 19
6 25 2 17 -11 35 -11 35 0 0 7 4 7 13 0 7 -6 19 -7 26 -3 7 5 28 5 47 1 20 -5
34 -4 34 1 0 6 9 5 20 -1 14 -8 20 -8 20 0 0 6 5 8 10 5 8 -5 15 9 8 18 -1 1
10 15 25 31 15 16 25 31 23 34 -3 2 2 11 10 19 8 8 12 19 9 24 -4 5 -1 9 4 9
6 0 11 7 11 15 0 8 5 15 11 15 5 0 15 14 20 30 6 17 15 30 20 30 5 0 8 3 8 8
-3 17 1 35 7 29 7 -7 44 60 44 79 0 14 -32 13 -42 -1 -5 -6 -8 -5 -8 4 0 10
-3 11 -13 2 -8 -6 -17 -8 -20 -5 -3 4 -62 6 -132 6 -69 0 -125 3 -125 7 0 3
-101 6 -225 6 -124 0 -225 -4 -225 -8 0 -5 -5 -5 -11 -1 -6 3 -51 6 -99 6 -74
0 -87 3 -86 16 0 9 9 24 19 34 10 10 15 23 12 27 -2 5 2 12 11 15 9 4 14 9 10
13 -3 3 1 15 11 25 9 10 13 18 8 18 -4 0 -2 7 5 15 6 8 9 19 5 24 -3 7 0 8 9
5 11 -4 16 0 16 14 0 11 6 27 13 34 7 7 31 50 54 95 23 45 45 78 49 75 4 -4 4
3 1 16 -3 15 -1 22 10 22 8 0 11 5 8 10 -3 6 -1 10 5 10 6 0 8 5 5 10 -3 6 1
13 9 16 9 3 14 10 11 14 -3 5 0 14 7 22 7 7 14 20 16 28 2 8 8 18 14 21 5 3 9
8 8 10 -2 6 13 43 19 49 14 12 40 68 34 74 -3 3 1 6 11 6 9 0 15 4 11 9 -3 5
2 16 10 24 11 12 12 17 2 20 -7 3 -4 6 6 6 10 1 16 5 12 10 -3 5 1 16 9 24 8
8 12 17 9 21 -4 3 -1 6 6 6 7 0 10 4 7 9 -3 4 3 19 14 31 11 12 17 26 15 30
-3 4 2 11 11 14 8 3 12 10 9 16 -3 5 -1 10 5 10 7 0 10 7 6 15 -3 8 -2 15 3
15 9 0 35 51 33 63 -1 4 2 7 8 7 5 0 10 8 10 18 0 11 9 27 20 37 11 10 20 24
20 31 0 7 7 20 16 28 8 9 13 16 11 16 -3 0 6 19 19 43 13 23 27 50 30 60 4 9
11 17 16 17 5 0 6 5 3 10 -3 6 -1 10 6 10 7 0 9 3 6 6 -4 4 3 20 14 36 12 16
22 36 23 44 1 9 9 20 17 25 8 5 10 9 6 9 -5 0 1 13 12 29 12 16 21 34 21 40 0
6 5 11 12 11 6 0 9 3 5 6 -3 3 10 32 29 65 19 33 32 64 28 71 -5 8 -1 9 12 4
10 -4 15 -4 11 0 -4 4 0 18 9 32 8 13 14 26 11 28 -2 2 -23 -23 -47 -55z"/>
<path d="M630 1790 c-14 -9 -6 -33 26 -81 17 -24 37 -59 45 -77 7 -18 17 -32
21 -32 5 0 8 -7 8 -15 0 -8 5 -15 10 -15 6 0 10 -7 10 -15 0 -9 7 -18 15 -21
8 -4 15 -12 15 -20 0 -8 11 -24 25 -36 13 -11 22 -25 19 -30 -3 -4 0 -8 7 -8
7 0 10 -3 6 -6 -3 -3 6 -17 20 -30 14 -13 22 -24 18 -24 -4 0 2 -8 13 -19 12
-10 22 -24 22 -30 0 -7 5 -9 10 -6 6 3 10 -1 10 -10 0 -9 5 -13 10 -10 6 3 10
1 10 -6 0 -6 10 -20 22 -30 11 -11 18 -19 14 -19 -4 0 14 -21 39 -46 25 -25
45 -51 45 -57 0 -6 3 -8 6 -4 8 8 34 -18 34 -33 0 -6 5 -8 10 -5 6 3 10 -1 10
-9 0 -9 4 -16 8 -16 15 0 91 -78 84 -86 -4 -4 -1 -4 6 0 7 4 24 -5 42 -23 17
-16 30 -28 30 -26 0 2 17 -13 39 -35 21 -21 41 -36 45 -33 3 3 8 -2 12 -11 3
-9 12 -16 20 -16 8 0 14 -4 14 -10 0 -5 7 -10 15 -10 8 0 15 -4 15 -10 0 -5 7
-10 16 -10 9 0 12 -5 8 -12 -5 -7 -2 -9 8 -6 8 4 20 -2 27 -14 7 -11 15 -18
18 -15 3 3 17 -5 31 -19 15 -13 32 -24 38 -24 7 0 15 -7 18 -16 3 -8 10 -13
15 -10 5 4 16 -1 24 -9 9 -8 19 -15 23 -15 4 0 13 -8 21 -17 8 -10 12 -12 8
-5 -9 18 6 15 22 -5 10 -12 12 -13 8 -3 -4 10 -2 9 8 -2 8 -10 17 -15 20 -11
4 3 7 1 7 -5 0 -7 8 -12 19 -12 10 0 24 -7 31 -15 7 -8 16 -12 21 -9 5 3 9 1
9 -4 0 -8 24 -19 45 -21 10 -1 70 -36 76 -44 3 -5 8 -7 10 -6 8 5 99 -26 99
-34 0 -4 4 -6 9 -2 5 3 12 1 16 -5 4 -6 11 -8 16 -5 5 4 9 1 9 -5 0 -6 4 -9 8
-6 5 3 21 -2 36 -9 16 -8 32 -12 37 -9 5 3 9 1 9 -5 0 -5 9 -8 20 -6 11 2 20
-1 20 -6 0 -6 5 -7 10 -4 6 3 10 0 10 -7 0 -9 3 -9 10 2 7 11 10 11 10 2 0 -7
4 -10 10 -7 6 3 10 1 10 -6 0 -7 3 -10 6 -6 3 3 17 2 30 -3 32 -13 75 -22 97
-21 9 0 15 -4 13 -8 -3 -4 12 -7 32 -6 20 0 40 -3 43 -7 4 -7 83 -20 127 -21
6 0 12 -3 12 -6 0 -3 22 -6 50 -6 27 1 50 -2 50 -6 0 -4 8 -6 18 -4 9 1 23 -2
30 -8 7 -5 12 -5 12 0 0 5 11 9 25 9 14 0 25 -3 25 -7 0 -8 20 -6 36 4 6 3 14
3 18 0 4 -4 16 -8 27 -10 14 -2 18 1 13 9 -5 9 -2 9 9 -1 14 -11 20 -11 34 0
11 9 14 10 10 2 -6 -9 2 -12 27 -11 21 1 33 5 29 11 -4 6 -1 7 8 1 20 -13 99
-13 99 0 0 7 3 8 8 1 10 -14 32 -17 32 -4 0 6 5 7 13 2 19 -12 37 -12 37 -1 0
6 6 5 15 -2 8 -7 15 -8 15 -3 0 5 15 9 33 10 79 4 107 8 107 13 0 3 20 6 45 5
25 0 45 3 45 6 0 4 14 6 31 5 16 -1 32 1 34 5 3 4 35 12 72 19 38 7 74 17 81
23 8 6 12 5 12 -4 0 -9 3 -10 8 -3 4 6 27 16 52 23 25 6 54 14 65 17 11 3 26
6 33 6 6 1 12 6 12 11 0 6 3 8 6 5 3 -4 20 0 39 7 18 8 35 11 39 8 3 -4 6 -1
6 6 0 8 7 11 15 7 8 -3 15 -1 15 4 0 6 3 9 8 8 4 -1 18 3 32 9 14 6 42 18 63
26 20 9 40 16 43 16 3 0 16 7 30 15 13 9 24 14 24 10 0 -4 7 -1 16 7 8 7 37
14 64 15 26 1 53 5 59 8 6 4 11 3 11 -3 0 -5 8 -8 18 -6 9 1 29 -4 44 -12 15
-7 29 -13 30 -12 2 0 16 -5 32 -11 15 -6 39 -11 52 -12 13 -1 24 -5 24 -9 0
-7 14 -8 120 -9 85 -1 121 3 140 15 6 3 10 0 10 -7 0 -9 3 -9 8 -2 4 6 30 19
58 28 55 18 102 40 149 71 35 23 161 145 150 145 -5 0 2 8 13 19 12 10 19 21
15 25 -3 3 -1 6 5 6 6 0 9 7 5 17 -4 10 -2 14 4 10 10 -6 23 13 28 38 1 6 8
26 15 45 8 19 13 38 12 43 -1 4 2 7 6 7 7 0 13 34 16 88 1 12 4 22 7 22 6 0 3
80 -6 150 -4 25 -7 53 -8 63 -2 21 -27 23 -27 2 0 -8 -4 -14 -9 -12 -5 1 -40
-29 -78 -68 -37 -38 -71 -69 -75 -68 -5 2 -8 -4 -8 -13 0 -8 -4 -12 -10 -9 -5
3 -10 2 -10 -4 0 -14 -47 -60 -54 -54 -3 3 -9 -2 -13 -12 -7 -19 -43 -60 -43
-49 0 3 -7 -1 -15 -10 -8 -8 -15 -20 -15 -26 0 -6 -4 -9 -9 -5 -5 3 -12 -4
-16 -15 -4 -11 -10 -18 -15 -15 -5 3 -11 -3 -15 -14 -5 -16 -11 -18 -35 -11
-17 5 -30 6 -30 4 0 -3 -7 2 -16 10 -8 9 -20 14 -25 11 -4 -3 -20 2 -34 11
-14 9 -32 14 -40 10 -9 -3 -14 -2 -11 3 5 8 -15 18 -58 27 -11 3 -25 9 -32 15
-7 6 -18 8 -24 4 -5 -3 -10 -1 -10 4 0 6 -3 10 -7 9 -18 -3 -48 18 -49 35 -1
9 -2 26 -3 38 -1 13 -5 18 -13 13 -10 -6 -10 -5 -1 8 7 8 10 17 8 20 -3 3 -7
25 -10 49 -7 71 -13 108 -20 119 -3 5 -1 10 5 10 6 0 8 5 5 10 -7 12 4 54 12
46 7 -7 32 17 26 27 -2 4 0 7 5 7 13 0 53 36 46 43 -3 3 4 8 15 12 11 3 23 15
26 26 4 11 9 18 12 15 3 -3 19 11 34 31 16 20 29 32 29 27 0 -4 11 7 25 26 14
19 25 30 25 25 0 -5 11 6 25 25 14 19 25 30 25 26 0 -5 13 7 29 27 15 20 31
34 33 31 3 -3 8 2 12 11 3 9 -1 18 -9 21 -8 4 -12 10 -9 15 3 5 -6 5 -20 -1
-14 -5 -26 -6 -26 -1 0 4 -11 7 -25 6 -14 -2 -27 0 -29 4 -3 4 -40 6 -83 3
-117 -6 -123 -6 -123 -15 0 -5 -4 -5 -10 -2 -5 3 -10 2 -10 -3 0 -6 -9 -8 -20
-5 -11 3 -20 0 -20 -6 0 -6 -4 -10 -8 -8 -13 4 -82 -26 -82 -35 0 -5 -4 -7 -9
-3 -5 3 -16 -1 -24 -10 -8 -8 -21 -16 -28 -17 -20 -4 -180 -168 -174 -178 3
-4 -2 -10 -10 -14 -8 -3 -15 -11 -15 -19 0 -7 -5 -18 -12 -25 -6 -6 -13 -17
-14 -24 -1 -7 -8 -26 -15 -43 -7 -16 -13 -32 -13 -35 -1 -3 -5 -11 -10 -18 -4
-7 -6 -16 -3 -19 3 -3 1 -17 -4 -32 -6 -14 -11 -82 -11 -151 l0 -125 -32 -31
c-18 -16 -38 -28 -44 -26 -7 2 -12 -1 -12 -7 0 -6 -9 -11 -19 -11 -28 0 -52
-11 -45 -21 3 -5 -3 -6 -12 -2 -13 5 -15 3 -9 -7 5 -8 4 -11 -3 -6 -6 4 -27 0
-47 -8 -19 -8 -35 -13 -35 -10 0 2 -13 -2 -29 -10 -16 -9 -31 -12 -35 -9 -3 4
-6 1 -6 -6 0 -7 -4 -9 -10 -6 -5 3 -18 1 -28 -4 -18 -10 -63 -21 -89 -23 -7
-1 -13 -4 -13 -7 0 -3 -10 -7 -22 -7 -13 -1 -32 -4 -43 -7 -11 -3 -33 -6 -48
-6 -20 -1 -26 -5 -21 -13 6 -10 4 -10 -8 0 -13 10 -17 10 -22 -3 -3 -10 -11
-13 -18 -9 -14 9 -66 6 -82 -3 -8 -5 -131 -13 -221 -15 -16 0 -33 -5 -37 -12
-5 -6 -8 -7 -8 -1 0 6 -9 11 -20 12 -13 1 -18 -2 -13 -10 4 -7 -1 -6 -11 2
-15 13 -19 13 -27 0 -5 -8 -9 -9 -9 -3 0 11 -3 11 -140 17 -52 3 -95 6 -95 7
0 4 -42 11 -72 11 -19 1 -30 5 -27 11 4 5 -4 5 -16 -2 -15 -8 -25 -9 -29 -2
-4 6 -26 12 -49 13 -23 2 -42 7 -42 11 0 4 -15 8 -33 8 -19 0 -37 3 -41 7 -8
9 -14 10 -50 12 -14 0 -31 8 -39 16 -12 11 -17 12 -20 2 -4 -9 -6 -9 -6 1 -1
7 -5 10 -11 7 -5 -3 -10 -2 -10 2 0 5 -14 9 -32 10 -18 0 -34 6 -36 12 -2 6
-19 13 -38 17 -19 3 -34 10 -34 14 0 5 -9 6 -20 3 -11 -3 -20 0 -20 6 0 6 -5
11 -10 11 -13 0 -103 42 -110 51 -3 3 -13 5 -23 3 -9 -1 -17 2 -17 6 0 5 -26
21 -57 36 -32 16 -60 31 -63 34 -3 3 -17 11 -32 19 -16 8 -28 18 -28 23 0 5
-4 6 -10 3 -5 -3 -10 -1 -10 5 0 6 -4 8 -10 5 -5 -3 -10 -2 -10 4 0 5 -8 12
-17 15 -10 3 -30 17 -44 30 -15 14 -29 23 -32 20 -2 -2 -10 2 -17 11 -7 8 -19
15 -28 15 -8 0 -12 3 -9 7 4 3 -3 13 -16 22 -12 9 -23 13 -24 11 -1 -3 -19 14
-41 38 -21 23 -44 42 -50 42 -6 0 -19 11 -30 25 -11 13 -22 21 -26 18 -3 -3
-6 1 -6 11 0 9 -4 14 -10 11 -5 -3 -10 1 -10 9 0 8 -8 17 -17 21 -10 3 -29 21
-43 39 -14 19 -28 32 -32 29 -8 -4 -12 13 -8 32 1 6 -1 7 -5 3 -7 -7 -29 9
-34 24 -1 4 -21 27 -45 52 -25 24 -42 46 -40 49 2 2 -14 23 -36 47 -22 23 -40
49 -40 56 0 8 -4 14 -8 14 -5 0 -14 10 -21 23 -12 22 -13 22 -247 22 -130 0
-240 -2 -244 -5z"/>
</g>
</svg>
